<svg width="24" height="24" fill="none" xmlns="http://www.w3.org/2000/svg"><path d="M4 14.59V7.323C4 5.39 5.622 3.878 7.5 4.059l.916.088c.783.076 1.53-.35 1.881-1.07a1.884 1.884 0 0 1 3.406.001 1.895 1.895 0 0 0 1.88 1.07l.917-.089c1.878-.181 3.5 1.332 3.5 3.264v7.267c0 .968-.418 1.887-1.141 2.51l-4.8 4.132a3.142 3.142 0 0 1-4.118 0l-4.8-4.132A3.311 3.311 0 0 1 4 14.59Z" fill="#29ACD5" fill-opacity=".4" stroke="#29ACD5" stroke-width="1.5" stroke-linecap="round"/><path d="m9 12 1.895 2L15 10" stroke="#fff" stroke-width="1.5" stroke-linecap="round" stroke-linejoin="round"/></svg>