<svg width="160" height="34" fill="none" xmlns="http://www.w3.org/2000/svg"><path opacity=".6" d="M32.669 12.876c1.316.758 2.551 1.47 3.787 2.18 1.266.727 2.53 1.453 3.867 2.218l-1.462 2.531c-.924-.52-1.783-.998-2.637-1.484-5.005-2.866-10.01-5.733-15.011-8.603-1.858-1.071-3.844-1.413-5.927-1.062-3.7.625-6.456 3.595-6.995 7.446-.485 3.46 1.581 7.11 4.903 8.674 2.773 1.3 6.054.975 8.513-.726l2.732 1.605c-2.888 2.511-6.927 3.506-10.623 2.477-4.648-1.294-7.954-5.136-8.478-9.854C4.649 12.06 9.157 6.445 15.421 5.664c2.614-.326 5.025.22 7.286 1.51 2.431 1.385 4.852 2.787 7.319 4.205l2.643 1.497Zm-.478-3.924c2.751-2.506 6.128-3.433 10.044-2.61 4.706.987 7.72 3.985 8.82 8.664 1.681 7.143-3.806 13.975-11.17 14.01-2.127.01-4.116-.556-5.96-1.623a1353.63 1353.63 0 0 0-6.396-3.672c-.29-.166-.595-.309-.938-.486l-2.636-1.512-8.106-4.57 1.456-2.534c.407.218.678.356.941.506 5.763 3.258 11.526 6.518 17.287 9.779 1.929 1.094 3.98 1.417 6.131.948a8.571 8.571 0 0 0 5.43-3.8 8.505 8.505 0 0 0 1.07-6.526c-1.113-4.63-5.857-7.467-10.504-6.25a8.508 8.508 0 0 0-2.703 1.218L32.19 8.952Z" fill="#fff"/><path d="M16.758 19.364a3.481 3.481 0 0 0 3.488-3.475 3.481 3.481 0 0 0-3.488-3.475 3.481 3.481 0 0 0-3.487 3.475 3.481 3.481 0 0 0 3.487 3.475Zm22.998 2.498a3.481 3.481 0 0 0 3.488-3.475 3.481 3.481 0 0 0-3.488-3.475 3.481 3.481 0 0 0-3.487 3.475 3.481 3.481 0 0 0 3.487 3.475Zm28.889-10.818a.925.925 0 0 1 .27.682v8.929c0 2.069-.582 3.658-1.748 4.766-1.165 1.109-2.776 1.663-4.831 1.663-2.034 0-3.628-.554-4.785-1.663-1.156-1.108-1.733-2.697-1.731-4.766v-8.93a.946.946 0 0 1 .582-.902.956.956 0 0 1 1.324.903v8.929c0 1.52.403 2.676 1.208 3.467.806.792 1.939 1.187 3.401 1.187 1.483 0 2.634-.395 3.451-1.187.817-.79 1.225-1.947 1.224-3.467v-8.93a.962.962 0 0 1 .594-.875.97.97 0 0 1 1.042.194h-.001Zm16.463.982c.922 1.15 1.383 2.676 1.383 4.576v9.309a.894.894 0 0 1-.286.68.943.943 0 0 1-.668.27.93.93 0 0 1-.89-.582.919.919 0 0 1-.063-.368v-9.214c0-1.372-.345-2.486-1.033-3.341-.689-.856-1.754-1.283-3.194-1.283a5.723 5.723 0 0 0-4.577 2.328 3.856 3.856 0 0 0-.763 2.296v9.214a.948.948 0 0 1-.582.902.956.956 0 0 1-1.26-.53.944.944 0 0 1-.065-.372V11.726a.944.944 0 0 1 .582-.903.956.956 0 0 1 1.325.903v1.74c.572-.907 1.393-1.662 2.463-2.265 1.07-.604 2.167-.905 3.29-.903 1.97.002 3.416.578 4.338 1.728Zm7.15 14.566a.953.953 0 0 1-1.635-.681V11.345a.946.946 0 0 1 .582-.902.957.957 0 0 1 1.26.53.95.95 0 0 1 .064.372v14.566a.919.919 0 0 1-.27.68Zm.904-19.75a1.676 1.676 0 0 1-1.041 1.553 1.693 1.693 0 0 1-1.838-.365 1.679 1.679 0 0 1 1.192-2.869c.448 0 .877.177 1.193.492.317.316.494.743.494 1.189Zm16.407 3.744a.694.694 0 0 1 .286.57c0 .186-.043.37-.127.538l-6.23 14.566c-.085.17-.21.316-.365.427a.825.825 0 0 1-.493.174.887.887 0 0 1-.572-.126.956.956 0 0 1-.382-.475l-6.26-14.566a.597.597 0 0 0-.049-.19.724.724 0 0 1-.047-.253.91.91 0 0 1 .254-.65c.169-.179.412-.268.73-.269.19 0 .374.06.525.175.161.118.287.276.367.458l5.403 12.825 5.434-12.825c.079-.182.205-.34.366-.458a.778.778 0 0 1 .556-.143.971.971 0 0 1 .604.222Zm16.428 7.9a.944.944 0 0 1-.664.267h-12.018c0 1.267.26 2.402.779 3.404a5.866 5.866 0 0 0 2.225 2.376c.964.58 2.103.87 3.416.87 1.018 0 1.929-.21 2.734-.633a5.644 5.644 0 0 0 1.939-1.615c.233-.19.456-.286.667-.285a.873.873 0 0 1 .827.823c0 .233-.106.454-.318.665a8.002 8.002 0 0 1-2.559 2.027 7.037 7.037 0 0 1-3.26.793c-1.632 0-3.073-.349-4.322-1.045a7.42 7.42 0 0 1-2.922-2.925c-.7-1.257-1.049-2.709-1.049-4.355 0-1.73.345-3.245 1.033-4.544.689-1.3 1.604-2.291 2.745-2.976a6.993 6.993 0 0 1 3.655-1.03 7.51 7.51 0 0 1 3.576.887c1.113.591 2.018 1.457 2.718 2.597.699 1.14 1.059 2.491 1.08 4.053a.85.85 0 0 1-.282.645Zm-10.504-5.08c-1.05.845-1.723 2.06-2.018 3.643h10.839v-.257a4.999 4.999 0 0 0-.953-2.486 5.173 5.173 0 0 0-1.987-1.615 5.78 5.78 0 0 0-2.463-.554c-1.23 0-2.369.422-3.418 1.266v.003Zm22.677-2.853c.339.17.509.423.509.76a.997.997 0 0 1-.254.713.818.818 0 0 1-.605.27c-.105 0-.314-.053-.619-.157a2.699 2.699 0 0 0-.875-.156c-.784 0-1.563.3-2.335.903a7.028 7.028 0 0 0-1.908 2.327c-.498.95-.746 1.91-.746 2.882v7.816a.965.965 0 0 1-.27.69.958.958 0 0 1-1.055.213.963.963 0 0 1-.518-.531.946.946 0 0 1-.064-.372V11.726a.945.945 0 0 1 .582-.903.955.955 0 0 1 1.325.903v2.786a7.26 7.26 0 0 1 2.208-2.993c.986-.791 2.146-1.197 3.481-1.219a2.53 2.53 0 0 1 1.144.253Zm13.54 14.788a.917.917 0 0 1 0 1.267.897.897 0 0 1-.669.253h-10.329a.834.834 0 0 1-.668-.3.963.963 0 0 1-.254-.618 1.06 1.06 0 0 1 .286-.728l9.412-12.983h-7.98a.921.921 0 0 1-.653-.254.893.893 0 0 1-.2-.289.902.902 0 0 1-.07-.344c0-.118.025-.235.07-.344a.893.893 0 0 1 .2-.289.92.92 0 0 1 .653-.253h9.757a.811.811 0 0 1 .636.284.969.969 0 0 1 .256.665 1.18 1.18 0 0 1-.254.697l-9.442 12.982h8.58a.907.907 0 0 1 .669.255Z" fill="#fff"/><path d="M152.576 27.86a2.15 2.15 0 0 0 2.155-2.146 2.15 2.15 0 0 0-2.155-2.146 2.15 2.15 0 0 0-2.154 2.146 2.15 2.15 0 0 0 2.154 2.147Z" fill="#fff"/></svg>