<svg width="48" height="48" fill="none" xmlns="http://www.w3.org/2000/svg"><path d="M8 42h32V19l-3.5.5-3.5-2-4.5 2-4.5-2-4.5 2-4.5-2-3.5 2L8 19v23Z" fill="#fff" fill-opacity=".1"/><path d="M27 42V27a1.5 1.5 0 0 1 1.5-1.5h6A1.5 1.5 0 0 1 36 27v15m-9 0H4.72M27 42h9m0 0h7.28m-2.78 0V18.698m-33 23.3V18.7m0 0a6.002 6.002 0 0 0 7.5-1.23 5.986 5.986 0 0 0 4.5 2.03c1.792 0 3.4-.786 4.5-2.032a5.986 5.986 0 0 0 4.5 2.032c1.792 0 3.4-.786 4.5-2.032a6.002 6.002 0 0 0 7.5 1.228m-33 0a6.008 6.008 0 0 1-1.242-9.44L8.636 6.88a3 3 0 0 1 2.12-.88h26.486a3 3 0 0 1 2.12.88l2.38 2.378a6 6 0 0 1-1.242 9.44m-27 17.3H21a1.5 1.5 0 0 0 1.5-1.5V27a1.5 1.5 0 0 0-1.5-1.5h-7.5A1.5 1.5 0 0 0 12 27v7.5c0 .83.672 1.5 1.5 1.5v-.002Z" stroke="#fff" stroke-width="1.5" stroke-linecap="round" stroke-linejoin="round"/></svg>