<svg width="48" height="48" fill="none" xmlns="http://www.w3.org/2000/svg"><path d="M18 24h7.5M18 30h7.5M18 36h7.5m6 1.5H36a4.5 4.5 0 0 0 4.5-4.5V12.216c0-2.27-1.69-4.196-3.952-4.384a96.807 96.807 0 0 0-2.246-.16m-11.602 0c-.13.42-.2.866-.2 1.328a1.5 1.5 0 0 0 1.5 1.5h9A1.5 1.5 0 0 0 34.5 9c0-.45-.067-.898-.2-1.328m-11.6 0A4.503 4.503 0 0 1 27 4.5h3a4.5 4.5 0 0 1 4.3 3.172m-11.6 0c-.752.046-1.5.1-2.248.16-2.262.188-3.952 2.114-3.952 4.384V16.5m0 0H9.75a2.25 2.25 0 0 0-2.25 2.25v22.5a2.25 2.25 0 0 0 2.25 2.25h19.5a2.25 2.25 0 0 0 2.25-2.25v-22.5a2.25 2.25 0 0 0-2.25-2.25H16.5Zm-3 7.5h.016v.016H13.5V24Zm0 6h.016v.016H13.5V30Zm0 6h.016v.016H13.5V36Z" stroke="#fff" stroke-width="1.5" stroke-linecap="round" stroke-linejoin="round"/><path fill="#fff" fill-opacity=".1" d="M8 17h23v26H8z"/></svg>