<svg width="18" height="18" fill="none" xmlns="http://www.w3.org/2000/svg"><path d="M7.663 2.069c.322-1.425 2.352-1.425 2.674 0l.114.503a1.37 1.37 0 0 0 2.069.857l.436-.276c1.235-.78 2.67.656 1.89 1.891l-.275.436a1.37 1.37 0 0 0 .857 2.07l.503.113c1.425.322 1.425 2.352 0 2.674l-.503.114a1.37 1.37 0 0 0-.857 2.069l.276.436c.78 1.235-.656 2.67-1.891 1.89l-.436-.275a1.37 1.37 0 0 0-2.07.857l-.113.503c-.322 1.425-2.352 1.425-2.674 0l-.114-.503a1.37 1.37 0 0 0-2.069-.857l-.436.276c-1.235.78-2.67-.656-1.89-1.891l.275-.436a1.37 1.37 0 0 0-.857-2.07l-.503-.113c-1.425-.322-1.425-2.352 0-2.674l.503-.114a1.37 1.37 0 0 0 .857-2.069l-.276-.436c-.78-1.235.656-2.67 1.891-1.89l.436.275c.8.505 1.86.066 2.07-.857l.113-.503Z" fill="#29ACD5" fill-opacity=".4" stroke="#29ACD5" stroke-width="1.5"/><path d="M10.714 9a1.713 1.713 0 1 1-3.427 0 1.713 1.713 0 0 1 3.427 0Z" stroke="#29ACD5" stroke-width="1.5"/></svg>