<svg width="24" height="24" fill="none" xmlns="http://www.w3.org/2000/svg"><g clip-path="url(#a)"><path d="M17 8V5a1 1 0 0 0-1-1H6a2 2 0 0 0 0 4h12a1 1 0 0 1 1 1v3m0 4v3a1 1 0 0 1-1 1H6a2 2 0 0 1-2-2V6" stroke="#29ACD5" stroke-width="1.5" stroke-linecap="round" stroke-linejoin="round"/><path opacity=".4" fill="#29ACD5" d="M4 8h15v12H4z"/><path d="M20 12v4h-4a2 2 0 0 1 0-4h4Z" fill="#2C2832" stroke="#29ACD5" stroke-width="1.5" stroke-linecap="round" stroke-linejoin="round"/></g><defs><clipPath id="a"><path fill="#fff" d="M0 0h24v24H0z"/></clipPath></defs></svg>