<svg width="48" height="48" fill="none" xmlns="http://www.w3.org/2000/svg"><path d="M42 32V16a4 4 0 0 0-2-3.46l-14-8a4 4 0 0 0-4 0l-14 8A4 4 0 0 0 6 16v16a4 4 0 0 0 2 3.46l14 8a4 4 0 0 0 4 0l14-8A4 4 0 0 0 42 32Z" fill="#fff" fill-opacity=".1"/><path d="M33 18.8 15 8.42M42 32V16a4 4 0 0 0-2-3.46l-14-8a4 4 0 0 0-4 0l-14 8A4 4 0 0 0 6 16v16a4 4 0 0 0 2 3.46l14 8a4 4 0 0 0 4 0l14-8A4 4 0 0 0 42 32Z" stroke="#fff" stroke-width="1.5" stroke-linecap="round" stroke-linejoin="round"/><path d="M6.54 13.92 24 24.02l17.46-10.1M24 44.16V24" stroke="#fff" stroke-width="1.5" stroke-linecap="round" stroke-linejoin="round"/></svg>