<svg width="18" height="18" viewBox="0 0 18 18" fill="none" xmlns="http://www.w3.org/2000/svg">
<path d="M7.66298 2.06869C7.98485 0.643769 10.0151 0.643771 10.337 2.06869L10.4507 2.57191C10.6593 3.4954 11.719 3.93437 12.5196 3.42886L12.9558 3.15341C14.1909 2.37343 15.6266 3.80907 14.8466 5.04424L14.5711 5.48044C14.0656 6.28095 14.5046 7.34071 15.4281 7.54932L15.9313 7.66298C17.3562 7.98485 17.3562 10.0151 15.9313 10.337L15.4281 10.4507C14.5046 10.6593 14.0656 11.719 14.5711 12.5196L14.8466 12.9558C15.6266 14.1909 14.1909 15.6266 12.9558 14.8466L12.5196 14.5711C11.719 14.0656 10.6593 14.5046 10.4507 15.4281L10.337 15.9313C10.0151 17.3562 7.98485 17.3562 7.66298 15.9313L7.54932 15.4281C7.34071 14.5046 6.28095 14.0656 5.48044 14.5711L5.04424 14.8466C3.80907 15.6266 2.37344 14.1909 3.15341 12.9558L3.42886 12.5196C3.93437 11.719 3.4954 10.6593 2.57191 10.4507L2.06869 10.337C0.643769 10.0151 0.643771 7.98485 2.06869 7.66298L2.57191 7.54932C3.4954 7.34071 3.93437 6.28095 3.42886 5.48044L3.15341 5.04424C2.37343 3.80907 3.80907 2.37344 5.04424 3.15341L5.48044 3.42886C6.28095 3.93437 7.34071 3.4954 7.54932 2.57191L7.66298 2.06869Z" fill="#29ACD5" fill-opacity="0.4" stroke="#29ACD5" stroke-width="1.5"/>
<path d="M10.7139 9.00012C10.7139 9.94639 9.94676 10.7135 9.00049 10.7135C8.05421 10.7135 7.28711 9.94639 7.28711 9.00012C7.28711 8.05385 8.05421 7.28674 9.00049 7.28674C9.94676 7.28674 10.7139 8.05385 10.7139 9.00012Z" stroke="#29ACD5" stroke-width="1.5"/>
</svg>
