<svg width="24" height="24" viewBox="0 0 24 24" fill="none" xmlns="http://www.w3.org/2000/svg">
<g clip-path="url(#clip0_318_27)">
<path d="M17 8.00012V5.00012C17 4.73491 16.8946 4.48055 16.7071 4.29302C16.5196 4.10548 16.2652 4.00012 16 4.00012H6C5.46957 4.00012 4.96086 4.21084 4.58579 4.58591C4.21071 4.96098 4 5.46969 4 6.00012C4 6.53056 4.21071 7.03926 4.58579 7.41434C4.96086 7.78941 5.46957 8.00012 6 8.00012H18C18.2652 8.00012 18.5196 8.10548 18.7071 8.29302C18.8946 8.48055 19 8.73491 19 9.00012V12.0001M19 16.0001V19.0001C19 19.2653 18.8946 19.5197 18.7071 19.7072C18.5196 19.8948 18.2652 20.0001 18 20.0001H6C5.46957 20.0001 4.96086 19.7894 4.58579 19.4143C4.21071 19.0393 4 18.5306 4 18.0001V6.00012" stroke="#29ACD5" stroke-width="1.5" stroke-linecap="round" stroke-linejoin="round"/>
<rect opacity="0.4" x="4" y="8.00012" width="15" height="12" fill="#29ACD5"/>
<path d="M20 12.0001V16.0001H16C15.4696 16.0001 14.9609 15.7894 14.5858 15.4143C14.2107 15.0393 14 14.5306 14 14.0001C14 13.4697 14.2107 12.961 14.5858 12.5859C14.9609 12.2108 15.4696 12.0001 16 12.0001H20Z" fill="#2C2832" stroke="#29ACD5" stroke-width="1.5" stroke-linecap="round" stroke-linejoin="round"/>
</g>
<defs>
<clipPath id="clip0_318_27">
<rect width="24" height="24" fill="white"/>
</clipPath>
</defs>
</svg>
