<svg width="160" height="34" viewBox="0 0 160 34" fill="none" xmlns="http://www.w3.org/2000/svg">
<path opacity="0.6" d="M32.669 12.8758C33.9851 13.6337 35.2204 14.3464 36.4564 15.0567C37.7216 15.7833 38.9867 16.5085 40.3232 17.2743L38.8605 19.8051C37.9365 19.2848 37.0777 18.8066 36.2243 18.3206C31.2188 15.4554 26.2149 12.588 21.2126 9.71819C19.3545 8.6469 17.3694 8.30465 15.2856 8.65628C11.5867 9.28139 8.8298 12.2507 8.29099 16.1021C7.80628 19.5622 9.87216 23.2129 13.1945 24.7757C15.9671 26.0751 19.2479 25.7508 21.7075 24.0497L24.4392 25.6554C21.5507 28.1661 17.5122 29.1608 13.8164 28.1317C9.16784 26.8385 5.86197 22.9957 5.33804 18.2776C4.64941 12.06 9.15686 6.44493 15.4211 5.66432C18.0353 5.33847 20.4456 5.88468 22.7067 7.17397C25.1381 8.55939 27.5592 9.96121 30.0258 11.3794L32.669 12.8758ZM32.1913 8.95164C34.942 6.44572 38.3192 5.51899 42.2353 6.34179C46.9411 7.32947 49.9545 10.3269 51.0549 15.0058C52.7365 22.1494 47.2494 28.9811 39.8856 29.0163C37.7584 29.0265 35.7694 28.4599 33.9247 27.3933C31.796 26.1629 29.664 24.9387 27.5286 23.7207C27.2384 23.5551 26.9341 23.4121 26.5913 23.2355L23.9553 21.7227L15.8486 17.1523L17.3051 14.619C17.7122 14.8371 17.9835 14.9754 18.2462 15.1254C24.0094 18.3834 29.7718 21.6428 35.5333 24.9038C37.462 25.9978 39.5122 26.3213 41.6643 25.8524C42.7778 25.611 43.8318 25.1505 44.7642 24.4977C45.6966 23.845 46.4887 23.0132 47.0941 22.0514C47.6995 21.0895 48.1058 20.0167 48.2894 18.8962C48.473 17.7757 48.4301 16.6301 48.1632 15.5263C47.0509 10.8957 42.3067 8.05851 37.6604 9.27514C36.6944 9.52026 35.7792 9.93288 34.9569 10.4941L32.1913 8.95164Z" fill="white"/>
<path d="M16.7584 19.3636C18.6846 19.3636 20.2462 17.8079 20.2462 15.8888C20.2462 13.9697 18.6846 12.4139 16.7584 12.4139C14.832 12.4139 13.2705 13.9697 13.2705 15.8888C13.2705 17.8079 14.832 19.3636 16.7584 19.3636Z" fill="white"/>
<path d="M39.7564 21.8618C41.6828 21.8618 43.2443 20.3061 43.2443 18.387C43.2443 16.468 41.6828 14.9121 39.7564 14.9121C37.8302 14.9121 36.2686 16.468 36.2686 18.387C36.2686 20.3061 37.8302 21.8618 39.7564 21.8618Z" fill="white"/>
<path d="M68.6448 11.0442C68.7341 11.1335 68.804 11.24 68.8505 11.3572C68.8971 11.4743 68.9192 11.5997 68.9153 11.7256V20.6546C68.9153 22.7237 68.3327 24.3126 67.1672 25.4212C66.0017 26.5297 64.3912 27.0839 62.3357 27.0839C60.3024 27.0839 58.7076 26.5297 57.5515 25.4212C56.3955 24.3126 55.8181 22.7237 55.8197 20.6546V11.7256C55.816 11.5986 55.838 11.4721 55.8843 11.3537C55.9305 11.2353 56.0002 11.1273 56.0891 11.0362C56.178 10.9451 56.2843 10.8726 56.4018 10.8232C56.5192 10.7737 56.6455 10.7482 56.773 10.7482C56.9006 10.7482 57.0268 10.7737 57.1443 10.8232C57.2618 10.8726 57.3682 10.9451 57.457 11.0362C57.5459 11.1273 57.6156 11.2353 57.6618 11.3537C57.708 11.4721 57.7301 11.5986 57.7264 11.7256V20.6546C57.7264 22.1752 58.129 23.3311 58.9342 24.1225C59.7395 24.9137 60.873 25.3094 62.3351 25.3094C63.8184 25.3094 64.9687 24.9137 65.786 24.1225C66.6032 23.3311 67.0111 22.1752 67.0095 20.6546V11.7256C67.0122 11.5379 67.0698 11.355 67.1753 11.1995C67.2808 11.0439 67.4298 10.9225 67.6036 10.8501C67.7775 10.7777 67.9688 10.7575 68.1541 10.792C68.3393 10.8265 68.5105 10.9142 68.6464 11.0442H68.6448ZM85.1083 12.0257C86.0302 13.1769 86.4911 14.7022 86.4911 16.6016V25.911C86.4946 26.0382 86.4711 26.1648 86.4217 26.2822C86.3723 26.3995 86.2984 26.5049 86.2048 26.5916C86.0271 26.7661 85.7869 26.863 85.5374 26.8613C85.4111 26.8653 85.2851 26.8436 85.1675 26.7973C85.0499 26.751 84.9432 26.6812 84.8537 26.5921C84.7643 26.503 84.6942 26.3967 84.6477 26.2795C84.6013 26.1624 84.5795 26.037 84.5836 25.911V16.6969C84.5836 15.3247 84.2393 14.211 83.5506 13.3556C82.8621 12.5002 81.7975 12.0728 80.357 12.0733C79.4644 12.0776 78.5854 12.2905 77.7904 12.6948C76.9955 13.099 76.3068 13.6835 75.7797 14.4011C75.2854 15.0653 75.018 15.87 75.0166 16.6969V25.911C75.0203 26.0381 74.9982 26.1645 74.952 26.283C74.9058 26.4013 74.8362 26.5093 74.7472 26.6004C74.6584 26.6915 74.552 26.764 74.4345 26.8135C74.317 26.863 74.1908 26.8885 74.0632 26.8885C73.9357 26.8885 73.8094 26.863 73.692 26.8135C73.5745 26.764 73.4682 26.6915 73.3792 26.6004C73.2904 26.5093 73.2207 26.4013 73.1745 26.283C73.1282 26.1645 73.1062 26.0381 73.11 25.911V11.7256C73.1062 11.5986 73.1282 11.4721 73.1745 11.3537C73.2207 11.2353 73.2904 11.1273 73.3792 11.0362C73.4682 10.9451 73.5745 10.8726 73.692 10.8232C73.8094 10.7737 73.9357 10.7482 74.0632 10.7482C74.1908 10.7482 74.317 10.7737 74.4345 10.8232C74.552 10.8726 74.6584 10.9451 74.7472 11.0362C74.8362 11.1273 74.9058 11.2353 74.952 11.3537C74.9982 11.4721 75.0203 11.5986 75.0166 11.7256V13.4666C75.5891 12.5591 76.4104 11.8038 77.4802 11.2005C78.5499 10.5973 79.6466 10.2965 80.7702 10.298C82.7404 10.2996 84.1865 10.8755 85.1083 12.0257ZM92.2589 26.5916C92.1257 26.7283 91.9541 26.8218 91.7668 26.86C91.5795 26.8983 91.3848 26.8794 91.2084 26.806C91.0319 26.7326 90.8817 26.608 90.7773 26.4484C90.6728 26.2887 90.6191 26.1016 90.6228 25.911V11.3451C90.6192 11.2181 90.6411 11.0916 90.6875 10.9732C90.7337 10.8548 90.8033 10.7468 90.8922 10.6557C90.9811 10.5645 91.0875 10.4921 91.2048 10.4426C91.3224 10.3931 91.4486 10.3677 91.5762 10.3677C91.7037 10.3677 91.83 10.3931 91.9475 10.4426C92.065 10.4921 92.1713 10.5645 92.2602 10.6557C92.349 10.7468 92.4186 10.8548 92.465 10.9732C92.5112 11.0916 92.5331 11.2181 92.5295 11.3451V25.911C92.5335 26.0368 92.5116 26.1622 92.4651 26.2793C92.4186 26.3964 92.3484 26.5026 92.2589 26.5916ZM93.1625 6.84192C93.1625 7.17434 93.0635 7.4993 92.8781 7.77571C92.6927 8.05211 92.4293 8.26754 92.121 8.39475C91.8127 8.52196 91.4735 8.55524 91.1462 8.4904C90.8191 8.42554 90.5184 8.26547 90.2825 8.03041C90.0465 7.79534 89.8858 7.49586 89.8207 7.16981C89.7556 6.84378 89.7891 6.50583 89.9167 6.1987C90.0444 5.89159 90.2607 5.62908 90.5381 5.44439C90.8156 5.25971 91.1417 5.16113 91.4755 5.16113C91.9228 5.16113 92.3519 5.33822 92.6683 5.65343C92.9847 5.96863 93.1625 6.39615 93.1625 6.84192ZM109.569 10.5856C109.659 10.6507 109.732 10.7364 109.782 10.8355C109.832 10.9347 109.857 11.0443 109.855 11.1552C109.855 11.3421 109.812 11.5264 109.728 11.6936L103.498 26.2596C103.413 26.4296 103.288 26.5763 103.133 26.6869C102.992 26.7969 102.819 26.8581 102.64 26.8613C102.441 26.8851 102.239 26.8405 102.068 26.7346C101.892 26.6219 101.758 26.4552 101.686 26.2596L95.4253 11.6936C95.4199 11.6281 95.4037 11.5639 95.3774 11.5037C95.3464 11.4228 95.3302 11.3371 95.3295 11.2505C95.3247 11.009 95.4164 10.7754 95.5844 10.6012C95.7527 10.4225 95.9962 10.3329 96.3146 10.3324C96.504 10.3315 96.6883 10.3928 96.8393 10.5067C97 10.6246 97.1264 10.7828 97.2055 10.9653L102.609 23.7896L108.043 10.9653C108.122 10.7827 108.248 10.6244 108.409 10.5067C108.569 10.3899 108.768 10.3388 108.965 10.3636C109.186 10.3669 109.399 10.4452 109.569 10.5856ZM125.997 18.4854C125.82 18.6584 125.581 18.7547 125.333 18.7535H113.315C113.315 20.0203 113.575 21.155 114.094 22.1573C114.596 23.1421 115.367 23.9656 116.319 24.5327C117.283 25.113 118.422 25.4031 119.735 25.4031C120.753 25.4031 121.664 25.1921 122.469 24.7703C123.23 24.3847 123.892 23.8324 124.408 23.1551C124.641 22.9645 124.864 22.8694 125.075 22.8698C125.291 22.881 125.495 22.9713 125.647 23.1232C125.8 23.2751 125.891 23.478 125.902 23.6927C125.902 23.9256 125.796 24.1474 125.584 24.3585C124.88 25.2019 124.009 25.8916 123.025 26.3846C122.019 26.9078 120.9 27.1799 119.765 27.1777C118.133 27.1777 116.692 26.8294 115.443 26.133C114.21 25.453 113.197 24.4386 112.521 23.2075C111.821 21.951 111.472 20.4993 111.472 18.8528C111.472 17.1227 111.817 15.6081 112.505 14.3089C113.194 13.0097 114.109 12.0176 115.25 11.3326C116.35 10.6591 117.615 10.3029 118.905 10.3035C120.153 10.2978 121.382 10.6026 122.481 11.1904C123.594 11.7811 124.499 12.6466 125.199 13.7869C125.898 14.9273 126.258 16.2783 126.279 17.84C126.281 17.9614 126.256 18.0816 126.207 18.1929C126.159 18.3041 126.087 18.4038 125.997 18.4854ZM115.493 13.4064C114.443 14.2513 113.77 15.4654 113.475 17.0485H124.314V16.7922C124.227 15.8929 123.898 15.0336 123.361 14.3057C122.845 13.6102 122.162 13.0551 121.374 12.6914C120.604 12.3273 119.763 12.1378 118.911 12.1366C117.681 12.1366 116.542 12.5589 115.493 13.4033V13.4064ZM138.17 10.5535C138.509 10.7228 138.679 10.9763 138.679 11.3138C138.691 11.5751 138.6 11.8307 138.425 12.0257C138.349 12.1109 138.255 12.179 138.152 12.2255C138.047 12.272 137.934 12.2958 137.82 12.2953C137.715 12.2953 137.506 12.2429 137.201 12.139C136.92 12.039 136.625 11.9861 136.326 11.9827C135.542 11.9827 134.763 12.2838 133.991 12.886C133.194 13.5154 132.543 14.3093 132.083 15.213C131.585 16.1631 131.337 17.1238 131.337 18.0947V25.911C131.34 26.0381 131.318 26.1645 131.272 26.283C131.226 26.4013 131.156 26.5093 131.067 26.6004C130.978 26.6915 130.872 26.764 130.755 26.8135C130.637 26.863 130.511 26.8885 130.383 26.8885C130.256 26.8885 130.129 26.863 130.012 26.8135C129.895 26.764 129.788 26.6915 129.699 26.6004C129.61 26.5093 129.541 26.4013 129.494 26.283C129.448 26.1645 129.426 26.0381 129.43 25.911V11.7256C129.426 11.5986 129.448 11.4721 129.494 11.3537C129.541 11.2353 129.61 11.1273 129.699 11.0362C129.788 10.9451 129.895 10.8726 130.012 10.8232C130.129 10.7737 130.256 10.7482 130.383 10.7482C130.511 10.7482 130.637 10.7737 130.755 10.8232C130.872 10.8726 130.978 10.9451 131.067 11.0362C131.156 11.1273 131.226 11.2353 131.272 11.3537C131.318 11.4721 131.34 11.5986 131.337 11.7256V14.5121C131.8 13.3406 132.561 12.3092 133.545 11.5193C134.531 10.728 135.691 10.3217 137.026 10.3004C137.422 10.2942 137.814 10.3809 138.17 10.5535ZM151.71 25.3415C151.873 25.5123 151.964 25.739 151.964 25.9747C151.964 26.2105 151.873 26.4372 151.71 26.608C151.622 26.6932 151.517 26.7595 151.401 26.8031C151.287 26.8466 151.164 26.8664 151.041 26.8613H140.712C140.585 26.8653 140.459 26.8403 140.343 26.7881C140.228 26.736 140.126 26.6581 140.044 26.5604C139.888 26.3918 139.799 26.1726 139.79 25.9431C139.789 25.6729 139.891 25.4125 140.076 25.2148L149.488 12.232H141.508C141.388 12.2344 141.268 12.2133 141.156 12.1697C141.044 12.1261 140.942 12.061 140.855 11.978C140.77 11.8961 140.702 11.7979 140.655 11.6891C140.61 11.5803 140.585 11.4633 140.585 11.3451C140.585 11.2269 140.61 11.1099 140.655 11.0011C140.702 10.8923 140.77 10.794 140.855 10.7121C141.03 10.5451 141.265 10.4541 141.508 10.459H151.265C151.385 10.4566 151.505 10.4809 151.614 10.5301C151.724 10.5793 151.822 10.6521 151.901 10.7434C152.068 10.9246 152.159 11.1623 152.157 11.4084C152.149 11.6619 152.061 11.9063 151.903 12.1054L142.461 25.0874H151.041C151.164 25.0824 151.287 25.1024 151.401 25.146C151.517 25.1897 151.622 25.2562 151.71 25.3415Z" fill="white"/>
<path d="M152.576 27.8608C153.767 27.8608 154.731 26.8999 154.731 25.7144C154.731 24.529 153.767 23.5679 152.576 23.5679C151.386 23.5679 150.422 24.529 150.422 25.7144C150.422 26.8999 151.386 27.8608 152.576 27.8608Z" fill="white"/>
</svg>
