<svg width="48" height="48" viewBox="0 0 48 48" fill="none" xmlns="http://www.w3.org/2000/svg">
<path d="M8 42H40V19L36.5 19.5L33 17.5L28.5 19.5L24 17.5L19.5 19.5L15 17.5L11.5 19.5L8 19V42Z" fill="white" fill-opacity="0.1"/>
<path d="M27.0002 42V27C27.0002 26.6022 27.1583 26.2206 27.4396 25.9393C27.7209 25.658 28.1024 25.5 28.5002 25.5H34.5002C34.898 25.5 35.2796 25.658 35.5609 25.9393C35.8422 26.2206 36.0002 26.6022 36.0002 27V42M27.0002 42H4.72023M27.0002 42H36.0002M36.0002 42H43.2802M40.5002 42V18.698M7.50023 41.998V18.7M7.50023 18.7C8.70027 19.392 10.1027 19.6475 11.4697 19.4233C12.8367 19.1992 14.0841 18.509 15.0002 17.47C15.5628 18.1089 16.2552 18.6204 17.0312 18.9705C17.8072 19.3206 18.6489 19.5011 19.5002 19.5C21.2922 19.5 22.9002 18.714 24.0002 17.468C24.5626 18.1073 25.255 18.6192 26.031 18.9696C26.807 19.32 27.6488 19.5008 28.5002 19.5C30.2922 19.5 31.9002 18.714 33.0002 17.468C33.9166 18.5067 35.1641 19.1964 36.5311 19.4203C37.8981 19.6441 39.3004 19.3882 40.5002 18.696M7.50023 18.696C6.70429 18.2347 6.02493 17.5968 5.5145 16.8314C5.00407 16.0661 4.67622 15.1937 4.55622 14.2816C4.43622 13.3695 4.52727 12.4421 4.82236 11.5707C5.11745 10.6994 5.6087 9.90748 6.25823 9.256L8.63623 6.88C9.19829 6.31723 9.96084 6.0007 10.7562 6H37.2422C38.0376 6.0007 38.8002 6.31723 39.3622 6.88L41.7422 9.258C42.3933 9.90872 42.8858 10.7005 43.1819 11.5721C43.4779 12.4437 43.5694 13.3717 43.4493 14.2843C43.3292 15.1969 43.0008 16.0697 42.4894 16.835C41.978 17.6004 41.2974 18.2378 40.5002 18.698M13.5002 35.998H21.0002C21.398 35.998 21.7796 35.84 22.0609 35.5587C22.3422 35.2774 22.5002 34.8958 22.5002 34.498V27C22.5002 26.6022 22.3422 26.2206 22.0609 25.9393C21.7796 25.658 21.398 25.5 21.0002 25.5H13.5002C13.1024 25.5 12.7209 25.658 12.4396 25.9393C12.1583 26.2206 12.0002 26.6022 12.0002 27V34.5C12.0002 35.33 12.6722 36 13.5002 36V35.998Z" stroke="white" stroke-width="1.5" stroke-linecap="round" stroke-linejoin="round"/>
</svg>
