<svg width="22" height="18" viewBox="0 0 22 18" fill="none" xmlns="http://www.w3.org/2000/svg">
<path d="M21.1623 2.65599C20.3989 2.99368 19.5893 3.21546 18.7603 3.31399C19.634 2.79142 20.288 1.969 20.6003 0.999988C19.7803 1.48799 18.8813 1.82999 17.9443 2.01499C17.3149 1.34157 16.4807 0.894951 15.5713 0.744572C14.6618 0.594194 13.7282 0.748479 12.9156 1.18344C12.1029 1.6184 11.4567 2.30967 11.0774 3.14978C10.6981 3.98989 10.607 4.93177 10.8183 5.82899C9.15541 5.74564 7.52863 5.31351 6.04358 4.56065C4.55854 3.80779 3.24842 2.75104 2.1983 1.45899C1.82659 2.09744 1.63125 2.82321 1.6323 3.56199C1.6323 5.01199 2.3703 6.29299 3.4923 7.04299C2.82831 7.02208 2.17893 6.84277 1.5983 6.51999V6.57199C1.5985 7.53769 1.93267 8.4736 2.54414 9.22105C3.15562 9.96849 4.00678 10.4815 4.9533 10.673C4.33691 10.84 3.6906 10.8646 3.0633 10.745C3.33016 11.5762 3.8503 12.3032 4.55089 12.8241C5.25147 13.345 6.09742 13.6338 6.9703 13.65C6.10278 14.3313 5.10947 14.835 4.04718 15.1322C2.98488 15.4293 1.87442 15.5142 0.779297 15.382C2.69099 16.6114 4.91639 17.2641 7.1893 17.262C14.8823 17.262 19.0893 10.889 19.0893 5.36199C19.0893 5.18199 19.0843 4.99999 19.0763 4.82199C19.8952 4.23016 20.6019 3.49701 21.1633 2.65699L21.1623 2.65599Z" fill="#29ACD5"/>
</svg>
